<svg xmlns="http://www.w3.org/2000/svg" width="13.331" height="18.396" viewBox="0 0 13.331 18.396">
  <g id="location-icon" transform="translate(-4.75 -1.75)">
    <path id="Path_159" data-name="Path 159" d="M11.415,2A6.423,6.423,0,0,0,5,8.415c0,4.906,5.532,10.494,5.768,10.729l.648.648.648-.648c.236-.236,5.768-5.823,5.768-10.729A6.423,6.423,0,0,0,11.415,2Zm0,15.152c-1.4-1.565-4.582-5.481-4.582-8.737a4.582,4.582,0,0,1,9.165,0C16,11.665,12.815,15.585,11.415,17.152Z" transform="translate(0)" stroke="#ffc72c" stroke-width="0.5"/>
    <path id="Path_160" data-name="Path 160" d="M11.749,6A2.749,2.749,0,1,0,14.5,8.749,2.749,2.749,0,0,0,11.749,6Zm0,3.666a.916.916,0,1,1,.916-.916A.916.916,0,0,1,11.749,9.666Z" transform="translate(-0.334 -0.334)" stroke="#ffc72c" stroke-width="0.5"/>
  </g>
</svg>
